HIERARCHY
ROOT Hips
{
	OFFSET 0.000000 0.000000 0.000000 
	CHANNELS 6 Xposition Yposition Zposition Yrotation Zrotation Xrotation 
	JOINT Lumbar
	{
		OFFSET 0.000000 0.000000 0.000000 
		CHANNELS 3 Zrotation Xrotation Yrotation
		JOINT Neck
		{
			OFFSET 0.000000 0.445665 0.000000 
			CHANNELS 3 Zrotation Xrotation Yrotation
			End Site
			{
				OFFSET 0.000000 0.227535 0.000000 
			}
		}
		JOINT RightShoulder
		{
			OFFSET 0.019635 0.377685 0.194865 
			CHANNELS 3 Zrotation Xrotation Yrotation
			JOINT RightElbow
			{
				OFFSET 0.000000 -0.243375 0.000000 
				CHANNELS 2 Zrotation Yrotation
				JOINT RightWrist
				{
					OFFSET 0.000000 -0.264825 0.000000 
					CHANNELS 2 Zrotation Xrotation
					End Site
					{
						OFFSET 0.006600 -0.176220 0.000990 
					}
				}
			}
		}
		JOINT LeftShoulder
		{
			OFFSET 0.019635 0.377685 -0.194865 
			CHANNELS 3 Zrotation Xrotation Yrotation
			JOINT LeftElbow
			{
				OFFSET 0.000000 -0.243375 0.000000 
				CHANNELS 2 Zrotation Yrotation
				JOINT LeftWrist
				{
					OFFSET 0.000000 -0.264825 0.000000 
					CHANNELS 2 Zrotation Xrotation
					End Site
					{
						OFFSET 0.006600 -0.176220 -0.000990 
					}
				}
			}
		}
	}
	JOINT RightHip
	{
		OFFSET 0.052140 -0.069960 0.075570 
		CHANNELS 3 Zrotation Xrotation Yrotation
		JOINT RightKnee
		{
			OFFSET 0.000000 -0.402270 0.000000 
			CHANNELS 1 Zrotation
			JOINT RightAnkle
			{
				OFFSET 0.000000 -0.404085 0.000000 
				CHANNELS 3 Zrotation Xrotation Yrotation
				End Site
				{
					OFFSET 0.204105 -0.089430 0.008415 
				}
			}
		}
	}
	JOINT LeftHip
	{
		OFFSET 0.052140 -0.069960 -0.075570 
		CHANNELS 3 Zrotation Xrotation Yrotation
		JOINT LeftKnee
		{
			OFFSET 0.000000 -0.402270 0.000000 
			CHANNELS 1 Zrotation
			JOINT LeftAnkle
			{
				OFFSET 0.000000 -0.404085 0.000000 
				CHANNELS 3 Zrotation Xrotation Yrotation
				End Site
				{
					OFFSET 0.204105 -0.089430 -0.008415 
				}
			}
		}
	}
}
MOTION
Frames: 28
Frame Time: 0.02
1.00411 0.93065 -0.7671 1233.8837 0 -5.67515 -3.44117 7.32302 -6.85895 -36.90315 2.96025 2.46871 39.82266 -22.75496 12.22665 15.91491 81.79997 -2.12487 -3.80042 40.62892 20.40533 -36.70268 25.74496 -95.21872 -19.50028 5.67291 21.26979 3.60181 0.40374 -41.26038 -2.44563 -2.88324 -8.00934 -2.54393 -2.59008 -3.94126 -13.37738 9.1916 -1.97568 -6.31333
0.99202 0.92912 -0.77418 1234.58929 0 -5.47737 -3.6504 7.4282 -6.7754 -36.69973 2.95651 2.59429 40.43845 -22.81556 12.63721 16.38375 81.83876 -1.96648 -4.04725 40.32599 20.16834 -35.6051 28.44323 -95.7182 -20.45809 5.69898 21.40799 3.42828 0.85452 -36.7987 -2.82583 -2.79106 -7.60246 -3.22396 -2.66268 -4.52246 -13.6051 9.61041 -2.22406 -6.43468
0.97967 0.92729 -0.78131 1235.24394 0 -5.21847 -3.88661 7.51737 -6.6651 -36.46817 2.90264 2.70307 40.90846 -22.85328 13.0232 16.88662 81.86452 -1.78517 -4.34987 39.53448 19.96838 -34.3587 31.52603 -95.62872 -21.29281 5.59586 21.33665 3.16932 1.13934 -32.09965 -3.38732 -2.65247 -6.9896 -3.89307 -2.77531 -5.06431 -13.87765 10.0266 -2.50484 -6.56622
0.96739 0.92557 -0.78846 1235.92619 0 -4.98658 -4.10826 7.61733 -6.56956 -36.25048 2.87152 2.81437 41.43374 -22.89827 13.41467 17.37386 81.8929 -1.61457 -4.6347 38.9721 19.7516 -33.23215 34.36644 -95.83324 -22.16203 5.5584 21.35465 2.95297 1.49359 -27.5686 -3.83255 -2.53593 -6.46182 -4.56514 -2.8682 -5.62514 -14.13969 10.44379 -2.77172 -6.69197
0.95535 0.92395 -0.79545 1236.58589 0 -4.75477 -4.34226 7.6993 -6.45886 -36.02711 2.84051 2.94798 42.00461 -22.95696 13.84807 17.8646 81.93605 -1.44046 -4.89082 38.37239 19.5303 -31.89974 37.51047 -95.94743 -23.12408 5.49312 21.38907 2.71843 1.87401 -22.74421 -4.42 -2.4134 -5.95362 -5.24745 -2.97023 -6.18247 -14.35601 10.86439 -3.03559 -6.81895
0.94273 0.92206 -0.80277 1237.28225 0 -4.51077 -4.55541 7.81809 -6.37489 -35.80982 2.79678 3.03055 42.44484 -22.98059 14.17863 18.353 81.94497 -1.26944 -5.21738 37.73871 19.32831 -30.95716 40.09787 -96.1021 -23.86232 5.45454 21.34327 2.5039 2.16392 -18.50126 -4.76104 -2.29358 -5.36746 -5.90268 -3.05998 -6.73591 -14.68459 11.2743 -3.31208 -6.94785
0.9287 0.91945 -0.81094 1238.08793 0 -4.23198 -4.71085 8.01832 -6.37242 -35.61016 2.7377 2.98011 42.57664 -22.92419 14.26513 18.8517 81.86332 -1.1083 -5.74118 37.11169 19.17877 -31.10191 41.16095 -96.50616 -24.01456 5.52064 21.11996 2.34611 2.19496 -15.77777 -4.29461 -2.18626 -4.54793 -6.51385 -3.12704 -7.30359 -15.25608 11.67746 -3.62901 -7.07117
0.91409 0.9166 -0.81945 1238.93347 0 -3.94619 -4.84294 8.26062 -6.39804 -35.41888 2.66638 2.87816 42.57924 -22.83145 14.24047 19.34186 81.74762 -0.95219 -6.33023 36.47115 19.04692 -31.64565 41.63026 -96.96712 -23.94385 5.61762 20.82504 2.2149 2.14689 -13.67745 -3.58654 -2.08461 -3.6703 -7.09132 -3.17608 -7.86469 -15.95142 12.06425 -3.95448 -7.1979
0.89968 0.9139 -0.82784 1239.76421 0 -3.67452 -4.98108 8.49982 -6.41084 -35.22773 2.59566 2.79716 42.63037 -22.74783 14.2425 19.81973 81.64663 -0.79671 -6.87893 35.85085 18.90195 -32.0221 42.29917 -97.40629 -23.9754 5.70109 20.56951 2.08457 2.16972 -11.39116 -3.04477 -1.98473 -2.86694 -7.66825 -3.2198 -8.42031 -16.6239 12.44588 -4.26811 -7.32914
0.88553 0.911 -0.83611 1240.57948 0 -3.35486 -5.13916 8.6715 -6.42344 -35.01867 2.54356 2.72575 42.71927 -22.69388 14.34493 20.36814 81.54761 -0.62774 -7.47642 35.15624 18.77834 -32.33783 43.27491 -97.81786 -24.00422 5.7793 20.27999 1.89733 2.0487 -8.68895 -2.27876 -1.86498 -1.85826 -8.31895 -3.32301 -9.01529 -17.14802 12.8868 -4.61908 -7.43567
0.8707 0.90847 -0.84471 1241.43667 0 -3.13383 -5.2502 8.99318 -6.44279 -34.84962 2.45116 2.62264 42.70084 -22.57072 14.21161 20.7658 81.43758 -0.4888 -7.98496 34.61665 18.61561 -32.87238 43.46966 -98.2958 -23.9805 5.87569 20.04405 1.83506 2.1989 -7.00001 -1.91028 -1.78842 -1.26093 -8.79904 -3.29621 -9.52099 -18.02105 13.1926 -4.89061 -7.59363
0.85403 0.90691 -0.85419 1242.4039 0 -3.19098 -5.23356 9.72533 -6.48014 -34.78618 2.24458 2.44272 42.41735 -22.25812 13.45809 20.76038 81.29679 -0.42815 -8.24947 34.53622 18.32659 -33.9497 41.61584 -99.05089 -23.92633 6.03042 19.99976 2.12013 3.22031 -7.99512 -2.78153 -1.83152 -1.86096 -8.89394 -2.9261 -9.83606 -19.73052 13.19733 -4.96945 -7.89881
0.83669 0.90575 -0.864 1243.41129 0 -3.34685 -5.17099 10.60523 -6.52233 -34.76329 1.99934 2.23342 42.03105 -21.87893 12.47069 20.60125 81.14771 -0.39831 -8.4186 34.60948 18.00011 -35.22689 39.00247 -99.85444 -23.81707 6.20013 20.00763 2.5286 4.50004 -9.98175 -4.04499 -1.91792 -2.86977 -8.80375 -2.42393 -10.05214 -21.80326 13.05509 -4.96314 -8.25423
0.81969 0.90449 -0.87365 1244.39809 0 -3.45558 -5.13151 11.414 -6.55833 -34.72396 1.77577 2.03854 41.69283 -21.5347 11.58793 20.50509 81.0083 -0.35671 -8.61964 34.59677 17.69965 -36.39024 36.75815 -100.56694 -23.69331 6.35327 19.97611 2.87556 5.59351 -11.49147 -5.07328 -1.98342 -3.6608 -8.74757 -1.97405 -10.27743 -23.77468 12.93405 -4.97601 -8.5829
0.80253 0.90289 -0.88336 1245.39675 0 -3.57504 -5.08156 12.24351 -6.61204 -34.67691 1.53396 1.83617 41.3445 -21.16801 10.70771 20.4379 80.84312 -0.30575 -8.87144 34.65172 17.36152 -37.66673 34.38879 -101.56895 -23.72568 6.54843 20.00998 3.24727 6.97063 -13.13712 -6.33267 -2.05373 -4.58251 -8.9022 -1.55427 -10.6512 -25.48707 13.00021 -5.06904 -8.92914
0.78557 0.9021 -0.89301 1246.37894 0 -3.69393 -5.0432 13.06125 -6.62975 -34.65495 1.32172 1.64456 40.99421 -20.83443 9.76875 20.27375 80.72966 -0.28158 -8.99381 34.60201 17.09313 -38.74713 32.11196 -101.98323 -23.42635 6.65947 19.91875 3.59518 7.82464 -14.72289 -7.20815 -2.12488 -5.33276 -8.57367 -1.04307 -10.69519 -27.81628 12.64769 -4.97798 -9.24952
0.76924 0.90341 -0.9025 1247.31203 0 -3.80248 -5.04463 13.83682 -6.54552 -34.6967 1.19533 1.47766 40.66685 -20.59413 8.71917 19.88113 80.76496 -0.32376 -8.78323 34.23082 17.02367 -39.25855 30.2383 -100.72584 -22.19536 6.53291 19.48857 3.85767 7.12553 -15.93281 -6.91878 -2.18225 -5.48486 -6.96167 -0.29178 -9.82845 -31.81774 11.12513 -4.37176 -9.49554
0.75316 0.90553 -0.9119 1248.2254 0 -3.90428 -5.06007 14.5902 -6.4247 -34.76147 1.10083 1.32511 40.34104 -20.39204 7.61987 19.39597 80.85199 -0.39186 -8.44523 33.74846 17.02655 -39.55969 28.49457 -98.88266 -20.63985 6.32154 18.92724 4.08987 5.89975 -17.03843 -6.23273 -2.23982 -5.45486 -4.86977 0.54265 -8.63837 -36.41242 9.19652 -3.58835 -9.71167
0.73702 0.90729 -0.92129 1249.14403 0 -3.99908 -5.07144 15.3363 -6.32176 -34.81275 0.99559 1.17434 40.01319 -20.18245 6.54795 18.95208 80.91296 -0.44807 -8.16437 33.31337 16.99758 -39.94114 26.71868 -97.33079 -19.25217 6.1497 18.41406 4.3289 4.9456 -18.16855 -5.73483 -2.30115 -5.52515 -2.99317 1.3265 -7.61158 -40.70147 7.48559 -2.90416 -9.93588
0.72061 0.90902 -0.9309 1250.08138 0 -4.13965 -5.07144 16.16129 -6.21495 -34.87813 0.87424 0.98764 39.68766 -19.93002 5.44875 18.50601 80.98452 -0.50566 -7.88303 32.89612 16.96132 -40.39444 24.80027 -95.67188 -17.77318 5.97346 17.95205 4.60144 3.86502 -19.43333 -5.21576 -2.34849 -5.53707 -1.11859 2.17108 -6.51 -45.1701 5.62623 -2.13807 -10.1867
0.70484 0.911 -0.94002 1250.97246 0 -4.18222 -5.09909 16.81425 -6.10591 -34.91924 0.79315 0.87935 39.3586 -19.7753 4.39618 18.04468 81.04629 -0.5663 -7.57418 32.41486 16.95997 -40.64523 23.22222 -94.09969 -16.4122 5.78703 17.3503 4.79551 2.91823 -20.37615 -4.64334 -2.42349 -5.62021 0.86759 2.90455 -5.4916 -49.3824 3.98568 -1.50162 -10.37232
0.69076 0.91352 -0.94792 1251.75795 0 -3.95367 -5.19962 17.0013 -6.0128 -34.8861 0.82777 0.98626 39.02366 -19.89434 3.49927 17.56345 81.06972 -0.62747 -7.21685 31.77037 17.01969 -40.38867 22.53452 -92.88014 -15.4222 5.58458 16.40642 4.77887 2.47814 -20.48154 -4.00295 -2.58316 -5.95813 3.0787 3.33301 -4.75774 -52.89462 3.01342 -1.26673 -10.4022
0.67733 0.91626 -0.95532 1252.49416 0 -3.62694 -5.32766 17.01477 -5.91635 -34.82778 0.89981 1.17123 38.68497 -20.10834 2.65019 17.07113 81.08141 -0.69089 -6.83755 31.06722 17.11541 -39.93447 22.19233 -91.77378 -14.56918 5.37642 15.3242 4.68423 2.18806 -20.25689 -3.32367 -2.76905 -6.36944 5.37773 3.6422 -4.12378 -56.09616 2.28247 -1.16878 -10.36419
0.66362 0.91891 -0.9629 1253.24128 0 -3.34566 -5.44342 17.10429 -5.81257 -34.78193 0.94672 1.31928 38.34562 -20.27038 1.76977 16.5846 81.09751 -0.75421 -6.47099 30.399 17.20652 -39.5694 21.70712 -90.63466 -13.6758 5.17638 14.29722 4.62522 1.82236 -20.16072 -2.6722 -2.93702 -6.73616 7.61381 3.99057 -3.46047 -59.34015 1.46519 -1.00849 -10.3457
0.64983 0.92157 -0.97069 1254.03601 0 -3.05941 -5.55893 17.20426 -5.74425 -34.73287 1.0286 1.47428 38.0158 -20.47051 0.92493 16.09057 81.11892 -0.81478 -6.0876 29.69162 17.25095 -39.1999 21.16575 -89.39486 -12.67732 4.94975 13.29719 4.56326 1.46956 -20.15106 -1.96541 -3.12968 -7.14413 9.96594 4.40452 -2.71801 -63.02948 0.53606 -0.84259 -10.37351
0.63637 0.92422 -0.97791 1254.72039 0 -2.7619 -5.68103 17.24257 -5.60253 -34.68387 1.04665 1.63267 37.66577 -20.61382 0.02189 15.61201 81.1263 -0.88101 -5.73657 29.05388 17.3997 -38.79556 20.82315 -88.40102 -11.93616 4.77861 12.21079 4.49079 1.13277 -19.88573 -1.3684 -3.278 -7.48605 12.08833 4.65349 -2.1684 -65.70024 -0.09868 -0.72301 -10.28981
0.62363 0.92692 -0.98375 1255.10955 0 -2.44324 -5.81721 17.14359 -5.25277 -34.64425 0.87502 1.78581 37.25681 -20.57338 -1.08598 15.16909 81.0932 -0.96447 -5.47402 28.61883 17.83103 -38.34173 20.9338 -88.04619 -11.85914 4.75938 10.91264 4.3956 0.80209 -18.98016 -1.09657 -3.28993 -7.62681 13.57372 4.46629 -2.12783 -65.70862 0.03283 -0.70077 -9.90985
0.6112 0.92959 -0.98903 1255.38982 0 -2.11935 -5.95853 16.99036 -4.83076 -34.6051 0.63873 1.93885 36.82878 -20.47318 -2.24753 14.7446 81.04695 -1.05305 -5.24664 28.25762 18.36457 -37.86043 21.23368 -87.93978 -12.03984 4.79696 9.53456 4.29504 0.48518 -17.83236 -0.9361 -3.25767 -7.69949 14.81832 4.11848 -2.27894 -64.68461 0.45182 -0.72091 -9.42164
